<svg xmlns="http://www.w3.org/2000/svg" xmlns:xlink="http://www.w3.org/1999/xlink" id="Layer_1" x="0" y="0" version="1.1" viewBox="0 0 197.8 416.3" style="enable-background:new 0 0 197.8 416.3" xml:space="preserve"><style type="text/css">.st0{fill:#ed6100}.st1{fill:#311d44}.st2{fill:#49ed00}.st3{clip-path:url(#SVGID_2_)}.st4{fill:none;stroke:#35ba00;stroke-miterlimit:10}.st5{fill:#ff8e06}.st6{fill:#1e122b}.st7{clip-path:url(#SVGID_4_)}.st8,.st9{fill:none;stroke:#ed6100;stroke-width:2;stroke-miterlimit:10}.st9{fill:#fbff43;stroke:#9ae0e2;stroke-width:.92}.st10{fill:#efdd00}.st11{opacity:.35;fill:#9ae0e2;enable-background:new}.st12{fill:none;stroke:#1b264c;stroke-width:3;stroke-linecap:round;stroke-miterlimit:10}.st13{fill:#fff}.st14{fill:#fbff43}.st15{fill:none;stroke:#1b264c;stroke-width:2;stroke-linecap:round;stroke-miterlimit:10}.st16{fill:#d85092}.st17{fill:none;stroke:#9ae0e2;stroke-width:3;stroke-miterlimit:10}.st18{clip-path:url(#SVGID_6_)}</style><path id="b-thigh" d="M77.4,290.5c0,0,3.7,29.9,8.1,43.9c7.2,22.8,9.8,26.6,18.4,27.9c8.6,1.3,11.5-19.1,13.9-36.3	c0.8-6,10.2-25.6,2.1-36.1C108.4,275,92.4,273,84.2,274.6C80.4,275.4,75.7,281.8,77.4,290.5z" class="st0"/><g id="b-calf"><path d="M91.6,349l13.2,54.5l8.1,0.9c0,0,7.8-28.8,0.6-54C105.5,322.2,91.6,349,91.6,349z" class="st0"/><path d="M122,358.4c0.1,1.3,0.3,2.6,0.3,4c1.1,18-3.5,38.8-3.5,38.8L99,401.7l-13.1-42.8l-1.5-4.9c0,0-4.8-11.6,8.2-11 C103.9,343.5,121.2,352,122,358.4z" class="st1"/><path d="M119,398.8l0.1,8.3l0.1,4.7c-6.6,1-13.2,1.5-19.8,1.5c-12,0.1-19.6-2.8-19.6-2.8l-1.4-4.3 c0,0,13.3-2.1,20.3-7.2C105.7,393.9,113.2,396.2,119,398.8z" class="st1"/><path d="M119.1,407.1l0.1,4.7c-6.6,1-13.2,1.5-19.8,1.5c-12,0.1-19.6-2.8-19.6-2.8l-1.4-4.3c0,0,3,1.6,12.5,2.5 C100.4,409.6,114.9,409.1,119.1,407.1z" class="st2"/><path d="M121.4,353.4c0.1,1.3,0.6,4.8,0.7,6.1c-17.5-14.4-29.5-15.8-33.2-15.6c-5.1,0.3-5.1,8-5.1,8S79,337.4,92,338 C103.3,338.5,120.7,347,121.4,353.4z" class="st2"/></g><path id="b-arm" d="M59.2,242.1c11.5-8.9,27.8-18.3,33.8-27.3s0.3-26.9-9.3-25c0,0-23.1,7.7-47.1,28.7	c0,0-9.7,12.1,1.4,21.2S59.2,242.1,59.2,242.1z" class="st1"/><g id="b-hand"><g><defs><path id="SVGID_1_" d="M47,211.1c-10-7.2-11.6-12.8-20.2-12.8s-0.6,14.3-0.6,14.3s-19.8-8.3-25.4,7.8s19.9,26.7,47.7,23.7 c0,0,8.5-4.2,7.2-15.9S47,211.1,47,211.1z"/></defs><clipPath id="SVGID_2_"><use xlink:href="#SVGID_1_" style="overflow:visible"/></clipPath><g class="st3"><polygon points="21.7 186.5 3.6 204 -6.7 237.4 52.5 252.1 60.7 215" class="st2"/><path d="M34.1,250.2c0,0,8.6-7.4,12.6-14.8c3.8-6.9,5.5-19.6-7.3-32.8" class="st4"/><path d="M8.7,246.3c0,0-10.5-12.5-3.9-26.6s28.5-2.7,28.5-2.7s-14.1-16-6.4-18.7s12.7,4.4,12.7,4.4" class="st4"/></g></g></g><path id="f-thigh" d="M106.5,298.6c0,0,3.3,25.2,8,39.1c7.7,22.6,10.4,26.4,19,27.5c8.6,1.1,11.1-19.4,13.1-36.6	c0.7-6,13.4-28.1,12.8-51.1c-18.7,1.2-29.3,1.9-37.8,4C117.5,282.5,105.1,290.8,106.5,298.6z" class="st5"/><g id="f-calf"><path d="M120.9,352.2l14.5,54.1l8.1,0.7c0,0,7.1-29-0.7-54C134.1,325.1,120.9,352.2,120.9,352.2z" class="st5"/><path d="M151.4,360.9c0.2,1.3,0.3,2.6,0.4,4c1.5,18-2.5,38.9-2.5,38.9l-19.9,1l-14.1-42.5l-1.6-4.8 c0,0-5.1-11.5,7.9-11.2C133,346.5,150.5,354.5,151.4,360.9z" class="st1"/><path d="M149.5,401.3l0.3,8.3l0.2,4.6c-6.5,1.2-13.2,1.8-19.8,2c-12,0.4-19.6-2.3-19.6-2.3l-1.5-4.3 c0,0,13.2-2.5,20.1-7.7C136,396.8,143.6,398.8,149.5,401.3z" class="st1"/><path d="M149.8,409.6l0.2,4.6c-6.5,1.2-13.2,1.8-19.8,2c-12,0.4-19.6-2.3-19.6-2.3l-1.5-4.3c0,0,3,1.5,12.6,2.2 C131.2,412.6,145.5,411.7,149.8,409.6z" class="st2"/><path d="M150.8,355.9c0.2,1.3,0.7,4.7,0.8,6.1c-17.8-14-29.8-15.1-33.6-14.8c-5.1,0.5-4.9,8.1-4.9,8.1 s-5.1-14.4,7.9-14.1C132.3,341.5,149.9,349.5,150.8,355.9z" class="st2"/></g><g id="torso"><path d="M170,199.9c0,0,4.7,14,0.9,25.4c-3.8,11.3-15.2,45.9-15.2,45.9h-12.9c0,0,16.1-68.7,1.3-75.6 c0,0,11-5.7,15.2-2.6S170,199.9,170,199.9z" class="st0"/><path d="M107.9,181.3c-1.9,1.5-20.9,5.4-23.1,9c-6.4,10.4-7.1,25.2-7.6,30.5c-1.3,11.9-0.6,23.9,2.1,35.5 c0.7,2.9-3.4,3.9-2.5,6.7c0.9,2.6,2.3,8.6-1.9,10.5c-7.2,3.3-9-21-11.9-38.2c-1-5.7-4.6-27.2,2.6-39.6c3.3-5.6,8.5-9.4,15.3-13.1 C89,178.2,101.8,177.7,107.9,181.3z" class="st5"/><path d="M163.2,225.2c-0.6,7.2-4.4,14.7-4.3,22.3c0.1,10,0.1,18.5-1.1,26.2c-1.4,8.9-4.5,16.6-10.8,23.9 c-5.8,6.8-22.9,17-30.8,17c-8.7,0-18.3-8.3-24.7-13.7c-7.3-6.1-23.1-23.3-25.5-32.4c-3.7-14-1.1-33.1,1.5-44.3 c3-13,7.2-23.9,13.2-33.2c0.1-0.1,0.2-0.3,0.4-0.4c13.3-13.5,56.8-13.5,70.1,0c7.8,7.9,12.1,18.6,12.1,29.7 C163.4,221.9,163.4,223.6,163.2,225.2z" class="st1"/><path d="M163.2,225.2c-0.6,7.2-4.4,14.7-4.3,22.3c0.1,10,0.1,18.5-1.1,26.2c-8.3,5.5-24,11.4-44-0.3 c-2.1-1.2,9.3-66.1,27.7-65.6c10.6,0.2,17.6,4.6,21.9,12.5C163.4,221.9,163.4,223.6,163.2,225.2z" class="st6"/><g><defs><path id="SVGID_3_" d="M158.9,261.7c2.2,22.5-1.9,30.3-8.3,37.5c-13.9,15.6-26.4,15.4-37.1,15.5c-13.9,0.1-27.5-10.4-33.4-17 c-7.8-8.9-14-21.7-15.6-36.9c4.1,3.5,26.4,10,49,10C136.1,270.8,155,265.1,158.9,261.7z"/></defs><clipPath id="SVGID_4_"><use xlink:href="#SVGID_3_" style="overflow:visible"/></clipPath><g class="st7"><rect width="98.4" height="54.6" x="62.7" y="260" class="st5"/><path d="M64.4,268.5c14.9,7.1,31.1,10.7,47.6,10.5c25.1-0.4,40-2.1,50.5-10.5" class="st8"/><path d="M70.7,271.3c0,15.4,19.7,36.7,35.1,43.4" class="st8"/></g></g></g><path id="f-arm" d="M104,234.2c12-8.2,26-20.7,36.5-23.6s25.7,8.1,20.8,16.6c0,0-14.5,19.5-41.9,35.8	c0,0-14.5,5.5-19.7-7.9C94.4,241.6,104,234.2,104,234.2z" class="st1"/><g id="suspender"><path d="M170,199.9c5.1,18-3.9,17-5.2,11.5c-0.9-3.6-2.4-3.2-5.5-4.1c-5.2-1.5-17.5,1.2-26.1,7.4 c-8.2,5.9-25.4,22.7-33.1,48.2c-1.1,3.7-2.5,15.7-7.7,16.7c-9.9,1.8-5.9-32.7,3.3-50.4c10.1-19.2,23.5-29.2,40.1-34.8 c5.7-1.9,15.8-6,22.9-4.3C164.5,191.5,168.6,194.8,170,199.9z" class="st5"/><path d="M99.2,280.1c0.3,4.6-0.1,10.4-2.6,12.5c-3,2.6-11.7-3.6-12.7-9.9c-0.9-6.3,5.1-13.3,9.2-13 C96.5,270,98.9,275.5,99.2,280.1z" class="st2"/></g><g id="head"><ellipse cx="116.2" cy="188.8" class="st9" rx="25.3" ry="6.8"/><path d="M126.8,188.3c-5.3,5.8-14.4,6.2-20.2,0.8c-0.3-0.3-0.6-0.5-0.8-0.8v-36h21V188.3z" class="st10"/><path d="M196.3,110.1c0,53.6-35.8,85.5-80,85.5s-80-31.9-80-85.5S76.5,1.5,116.3,1.5S196.3,56.5,196.3,110.1z" class="st11"/><path d="M72,89c0.8,0.4,4.1-0.6,4.1-0.6l-4.6-12.3c0,0-3.1,1.4-3.4,2.2C66.6,81.7,69.3,87.7,72,89z" class="st5"/><ellipse cx="71" cy="83.4" class="st5" rx="3.4" ry="6" transform="matrix(0.9363 -0.3512 0.3512 0.9363 -24.7605 30.2326)"/><ellipse cx="73.8" cy="82.3" class="st0" rx="3.7" ry="6.6" transform="matrix(0.9363 -0.3512 0.3512 0.9363 -24.2084 31.151)"/><path d="M80.8,91.3c1.8,0.9,9-1.3,9-1.3L79.6,63c0,0-6.8,3-7.6,4.9C68.9,74.9,74.8,88.4,80.8,91.3z" class="st5"/><ellipse cx="78.4" cy="78.8" class="st5" rx="7.5" ry="13.2" transform="matrix(0.9363 -0.3512 0.3512 0.9363 -22.67 32.5522)"/><ellipse cx="84.6" cy="76.4" class="st0" rx="8.2" ry="14.4" transform="matrix(0.9363 -0.3512 0.3512 0.9363 -21.4549 34.5867)"/><line x1="83.8" x2="97.2" y1="75.3" y2="71.5" class="st12"/><path d="M85.4,78.6c4.8,7.8,11.5,14.5,11.5,14.6c6-3.2,14.5-11.4,19.3-19.5c12-20.3,1-21.3,1-21.3 c-6.1,0-14-0.2-19.5,0c-4,0.1-8.2,0.3-10.3,1C81.3,55.4,79.8,69.3,85.4,78.6z" class="st5"/><ellipse cx="86.4" cy="90.7" class="st1" rx="15.2" ry="9.9" transform="matrix(0.2297 -0.9733 0.9733 0.2297 -21.7574 153.9086)"/><ellipse cx="90.2" cy="87.7" class="st13" rx="5.1" ry="3.3" transform="matrix(0.3009 -0.9537 0.9537 0.3009 -20.5584 147.3061)"/><path d="M161.8,121.6c0,25.2-20.4,45.6-45.6,45.6l0,0c-29.6,0-45.6-20.4-45.6-45.6c0-11.6,6.8-27.4,13.5-41 c7.8-15.9,6.6-28.8,32-28.8c25.8,0,24.4,13.2,32.3,29.3C155.1,94.6,161.8,110.1,161.8,121.6z" class="st14"/><path d="M154.3,82.6c-5.7,7.1-13.2,12.9-13.2,13.1c-5.6-3.9-13-13.2-16.6-21.8c-9.4-21.7,1.7-21.3,1.7-21.3 c6,0.8,13.9,1.5,19.4,2.4c4,0.7,8.1,1.3,10.1,2.3C161.3,60.1,161.1,74.2,154.3,82.6z" class="st5"/><path d="M154.3,82.6c-5.7,7.1-13.2,12.9-13.2,13.1c-2.1-6.2-3.3-12.8-3.5-19.4c-0.1-10.6,6.6-21.9,18.1-18.9 C161.3,60.1,161.1,74.2,154.3,82.6z" class="st0"/><line x1="147.4" x2="159.5" y1="78.4" y2="84.6" class="st12"/><ellipse cx="155.1" cy="83.6" class="st5" rx="14.4" ry="8.2" transform="matrix(0.3983 -0.9173 0.9173 0.3983 16.6331 192.6248)"/><path d="M158.2,98.7c-1.9,0.8-8.9-1.8-8.9-1.8l11.5-26.5c0,0,6.6,3.4,7.4,5.3C170.9,82.9,164.3,96,158.2,98.7z" class="st5"/><ellipse cx="161.2" cy="86.3" class="st0" rx="13.2" ry="7.5" transform="matrix(0.3983 -0.9173 0.9173 0.3983 17.8678 199.7958)"/><line x1="167.7" x2="160.8" y1="89.5" y2="85.9" class="st15"/><ellipse cx="165" cy="89.4" class="st5" rx="6.6" ry="3.7" transform="matrix(0.3983 -0.9173 0.9173 0.3983 17.2774 205.1562)"/><path d="M166.4,96.2c-0.8,0.4-4-0.8-4-0.8l5.2-12c0,0,3,1.5,3.3,2.4C172.2,89.1,169.2,95,166.4,96.2z" class="st5"/><ellipse cx="167.8" cy="90.6" class="st0" rx="6" ry="3.4" transform="matrix(0.3983 -0.9173 0.9173 0.3983 17.8409 208.4076)"/><path d="M100.7,136.1c0,0,6.9,1.3,5.2,5.5c-1,2.5-2.8,4.6-5.2,6c0,0,2.2-5,2.1-6.7 C102.7,139.5,100.7,136.1,100.7,136.1z" class="st10"/><path d="M86.3,111.5l-13.1-2.8c0,0-8.3,5.1-11,8.9c-0.6,8.8,9.7,14.9,19.3,14.1c4.5-0.3,6.5-8.6,6.1-13.1 C87.1,112.3,86.3,111.5,86.3,111.5z" class="st16"/><path d="M82.9,118.5c-1,1.5-5.4,6.8-12.8,5.9s-8.3-5.2-7.8-6.9s7.1-7.7,7.1-7.7c5-7.3,9-15.2,12.1-23.4 c2.8-7.4,4.8-6.1,6.2-5.8c1.4,0.3,4.5,0.6,3.4,6.7C87.5,107.6,87.2,112,82.9,118.5z" class="st14"/><path d="M104.8,140.3c-8.1,2.7-14.5,3.2-21.8,1.7c-2.8-0.6-5.5-1.5-6.3-5.2c0,0,2.4,12.2,12.8,12.3 C95.7,149.2,104.8,140.3,104.8,140.3z" class="st0"/><path d="M115.1,92.9c0.2,9-4.3,16.4-10.2,16.5s-12-6.9-12.2-15.9S98.2,77.1,104,77S114.9,84,115.1,92.9z" class="st1"/><ellipse cx="107.6" cy="89.1" class="st13" rx="5.4" ry="3.5" transform="matrix(4.640914e-02 -0.9989 0.9989 4.640914e-02 13.6553 192.4108)"/><polygon points="81.4 77.6 90.6 72.3 89.8 67.9 80.1 73.7" class="st16"/><polygon points="116.8 74.8 103.4 70.4 103.6 66 117.8 70.8" class="st16"/><path d="M196.3,110.1c0,53.6-35.8,85.5-80,85.5s-80-31.9-80-85.5S76.5,1.5,116.3,1.5S196.3,56.5,196.3,110.1z" class="st17"/><ellipse cx="135.5" cy="25.4" class="st13" rx="6.9" ry="8.7" transform="matrix(0.6899 -0.7239 0.7239 0.6899 23.6293 105.9363)"/><path d="M152.6,33.5c0.9,0.8,1.7,1.4,2.4,2.2s1.5,1.5,2.2,2.2s1.4,1.5,2,2.3s1.4,1.5,2,2.3l1.9,2.4 c0.6,0.8,1.2,1.7,1.8,2.5s1.2,1.6,1.7,2.5l1.6,2.6c4.2,6.9,7.6,14.1,10.3,21.7c1.2,3.8,2.6,7.6,3.4,11.5l0.7,2.9 c0.2,1,0.5,1.9,0.6,2.9l1,5.9c0.2,1,0.4,2,0.5,2.9l0.3,3l0.6,5.9c0.3,3.9,0.4,7.9,0.6,11.8c-0.4-3.9-0.8-7.9-1.3-11.8l-1-5.8 l-0.5-2.9c-0.2-1-0.4-1.9-0.7-2.9l-1.4-5.7c-0.2-1-0.5-1.9-0.8-2.8l-0.9-2.8c-1.1-3.8-2.6-7.4-4-11c-3.1-7.1-6.9-13.9-11.3-20.3 l-1.6-2.4c-0.6-0.8-1.2-1.5-1.8-2.3s-1.2-1.5-1.8-2.2l-1.9-2.1c-0.6-0.7-1.3-1.4-2-2.1s-1.3-1.4-2-2s-1.4-1.3-2.1-1.9 s-1.5-1.2-2.1-1.7l-0.1-0.1c-1.3-1-1.7-2.8-0.7-4.2c1-1.3,2.8-1.7,4.2-0.7L152.6,33.5z" class="st13"/><path d="M55,130c-0.1,5.1,0.8,10.2,2.8,14.9c2,4.9,4.6,9.6,7.7,13.9c3.1,4.4,6.7,8.5,10.6,12.2c2,1.9,4,3.6,6.2,5.3 c2.2,1.7,4.5,3.1,7,4.2c-2.6-0.9-5.1-2.1-7.4-3.6c-2.3-1.4-4.6-3-6.7-4.8c-4.3-3.4-8.4-7.3-12-11.5c-3.7-4.2-6.9-8.9-9.5-13.9 c-2.7-5.2-4.3-10.9-4.7-16.7l0,0c-0.1-1.7,1.2-3.1,2.9-3.1c1.7-0.1,3.1,1.2,3.1,2.9C55.1,129.8,55,129.9,55,130z" class="st13"/></g><g id="f-hand"><g><defs><path id="SVGID_5_" d="M104,234.2c-12.1-2.4-15.9-6.9-23.7-3.4s5.4,13.3,5.4,13.3s-21.5,0.6-19.9,17.5s29.5,15.7,53.6,1.4 c0,0,5.6-6.8-0.4-16.9C113,235.9,104,234.2,104,234.2z"/></defs><clipPath id="SVGID_6_"><use xlink:href="#SVGID_5_" style="overflow:visible"/></clipPath><g class="st18"><polygon points="70.9 222.2 61.6 245.7 66 280.3 126 269.3 118.1 232.1" class="st2"/><path d="M108.4,275.1c0,0,4.8-10.3,5.4-18.7c0.6-7.9-3-20.1-20.2-26.9" class="st4"/><path d="M83.7,282.1c0,0-14.7-7-14.6-22.7s24.9-14.2,24.9-14.2s-19.4-8.8-13.6-14.4s13.4-1.2,13.4-1.2" class="st4"/></g></g></g></svg>